# Blender 4.5.3 LTS
# www.blender.org
mtllib BOD_v3_Screen.mtl
o Screen
v -0.370113 0.050000 0.447462
v -0.370113 0.320024 0.447462
v -0.366692 0.050000 -0.450188
v -0.366692 0.320024 -0.450188
v -0.370113 0.104005 0.447462
v -0.370113 0.158009 0.447462
v -0.370113 0.212014 0.447462
v -0.370113 0.266019 0.447462
v -0.366692 0.266019 -0.450188
v -0.366692 0.212014 -0.450188
v -0.366692 0.158009 -0.450188
v -0.366692 0.104005 -0.450188
v -0.406897 0.050000 -0.414167
v -0.443639 0.050000 -0.374618
v -0.476589 0.050000 -0.331856
v -0.505403 0.050000 -0.286202
v -0.529742 0.050000 -0.238015
v -0.549480 0.050000 -0.187773
v -0.564472 0.050000 -0.135919
v -0.574614 0.050000 -0.082902
v -0.579841 0.050000 -0.029175
v -0.580119 0.050000 0.024810
v -0.575262 0.050000 0.078576
v -0.565486 0.050000 0.131664
v -0.550857 0.050000 0.183621
v -0.531473 0.050000 0.233999
v -0.507480 0.050000 0.282353
v -0.479073 0.050000 0.328258
v -0.446505 0.050000 0.371314
v -0.410059 0.050000 0.411145
v -0.410059 0.320024 0.411145
v -0.446505 0.320024 0.371314
v -0.479073 0.320024 0.328258
v -0.507480 0.320024 0.282353
v -0.531473 0.320024 0.233999
v -0.550857 0.320024 0.183622
v -0.565486 0.320024 0.131664
v -0.575262 0.320024 0.078576
v -0.580119 0.320024 0.024810
v -0.579841 0.320024 -0.029175
v -0.574614 0.320024 -0.082902
v -0.564472 0.320024 -0.135919
v -0.549480 0.320024 -0.187773
v -0.529742 0.320024 -0.238015
v -0.505403 0.320024 -0.286202
v -0.476589 0.320024 -0.331856
v -0.443639 0.320024 -0.374618
v -0.406897 0.320024 -0.414167
v -0.410059 0.104005 0.411145
v -0.446505 0.104005 0.371314
v -0.479073 0.104005 0.328258
v -0.507480 0.104005 0.282353
v -0.531473 0.104005 0.233999
v -0.550857 0.104005 0.183622
v -0.565486 0.104005 0.131664
v -0.575262 0.104005 0.078576
v -0.580119 0.104005 0.024810
v -0.579841 0.104005 -0.029175
v -0.574614 0.104005 -0.082902
v -0.564472 0.104005 -0.135919
v -0.549480 0.104005 -0.187773
v -0.529742 0.104005 -0.238015
v -0.505403 0.104005 -0.286202
v -0.476589 0.104005 -0.331856
v -0.443639 0.104005 -0.374618
v -0.406897 0.104005 -0.414167
v -0.410059 0.158009 0.411145
v -0.446505 0.158009 0.371314
v -0.479073 0.158009 0.328258
v -0.507480 0.158009 0.282353
v -0.531473 0.158009 0.233999
v -0.550857 0.158009 0.183622
v -0.565486 0.158009 0.131664
v -0.575262 0.158009 0.078576
v -0.580119 0.158009 0.024810
v -0.579841 0.158009 -0.029175
v -0.574614 0.158009 -0.082902
v -0.564472 0.158009 -0.135919
v -0.549480 0.158009 -0.187773
v -0.529742 0.158009 -0.238015
v -0.505403 0.158009 -0.286202
v -0.476589 0.158009 -0.331856
v -0.443639 0.158009 -0.374618
v -0.406897 0.158009 -0.414167
v -0.410059 0.212014 0.411145
v -0.446505 0.212014 0.371314
v -0.479073 0.212014 0.328258
v -0.507480 0.212014 0.282353
v -0.531473 0.212014 0.233999
v -0.550857 0.212014 0.183622
v -0.565486 0.212014 0.131664
v -0.575262 0.212014 0.078576
v -0.580119 0.212014 0.024810
v -0.579841 0.212014 -0.029175
v -0.574614 0.212014 -0.082902
v -0.564472 0.212014 -0.135919
v -0.549480 0.212014 -0.187773
v -0.529742 0.212014 -0.238015
v -0.505403 0.212014 -0.286202
v -0.476589 0.212014 -0.331856
v -0.443639 0.212014 -0.374618
v -0.406897 0.212014 -0.414167
v -0.410059 0.266019 0.411145
v -0.446505 0.266019 0.371314
v -0.479073 0.266019 0.328258
v -0.507480 0.266019 0.282353
v -0.531473 0.266019 0.233999
v -0.550857 0.266019 0.183622
v -0.565486 0.266019 0.131664
v -0.575262 0.266019 0.078576
v -0.580119 0.266019 0.024810
v -0.579841 0.266019 -0.029175
v -0.574614 0.266019 -0.082902
v -0.564472 0.266019 -0.135919
v -0.549480 0.266019 -0.187773
v -0.529742 0.266019 -0.238015
v -0.505403 0.266019 -0.286202
v -0.476589 0.266019 -0.331856
v -0.443639 0.266019 -0.374618
v -0.406897 0.266019 -0.414167
vn -0.6727 -0.0000 0.7399
vn -0.6673 -0.0000 -0.7448
vn -0.7007 -0.0000 -0.7135
vn -0.7632 -0.0000 -0.6462
vn -0.8198 -0.0000 -0.5727
vn -0.8701 -0.0000 -0.4928
vn -0.9127 -0.0000 -0.4087
vn -0.9467 -0.0000 -0.3220
vn -0.9725 -0.0000 -0.2331
vn -0.9898 -0.0000 -0.1425
vn -0.9987 -0.0000 -0.0510
vn -0.9991 -0.0000 0.0425
vn -0.9908 -0.0000 0.1357
vn -0.9741 -0.0000 0.2263
vn -0.9490 -0.0000 0.3154
vn -0.9155 -0.0000 0.4022
vn -0.8740 -0.0000 0.4859
vn -0.8248 -0.0000 0.5654
vn -0.7685 -0.0000 0.6399
vn -0.7060 -0.0000 0.7082
vt 0.947295 0.796112
vt 0.947294 0.995140
vt 0.999922 0.995140
vt 0.999922 0.796112
vt 0.947295 0.000000
vt 0.947295 0.199028
vt 0.999922 0.199028
vt 0.999922 0.000000
vt 0.947294 0.398056
vt 0.999922 0.398056
vt 0.947294 0.597084
vt 0.999922 0.597084
vt 0.000000 0.597084
vt -0.000000 0.796112
vt 0.052627 0.796112
vt 0.052627 0.597084
vt 0.105255 0.796112
vt 0.105255 0.597084
vt 0.157882 0.796112
vt 0.157882 0.597084
vt 0.210510 0.796112
vt 0.210510 0.597084
vt 0.263137 0.796112
vt 0.263137 0.597084
vt 0.315765 0.796112
vt 0.315765 0.597084
vt 0.368392 0.796112
vt 0.368392 0.597084
vt 0.421020 0.796112
vt 0.421020 0.597084
vt 0.473647 0.796112
vt 0.473647 0.597084
vt 0.526275 0.796112
vt 0.526275 0.597084
vt 0.578902 0.796112
vt 0.578902 0.597084
vt 0.631530 0.796112
vt 0.631530 0.597084
vt 0.684157 0.796112
vt 0.684157 0.597084
vt 0.736784 0.796112
vt 0.736784 0.597084
vt 0.789412 0.796112
vt 0.789412 0.597084
vt 0.842039 0.796112
vt 0.842039 0.597084
vt 0.894667 0.796112
vt 0.894667 0.597084
vt -0.000000 0.398056
vt 0.052627 0.398056
vt 0.105255 0.398056
vt 0.157882 0.398056
vt 0.210510 0.398056
vt 0.263137 0.398056
vt 0.315765 0.398056
vt 0.368392 0.398056
vt 0.421020 0.398056
vt 0.473647 0.398056
vt 0.526275 0.398056
vt 0.578902 0.398056
vt 0.631530 0.398056
vt 0.684157 0.398056
vt 0.736784 0.398056
vt 0.789412 0.398056
vt 0.842040 0.398056
vt 0.894667 0.398056
vt -0.000000 0.199028
vt 0.052627 0.199028
vt 0.105255 0.199028
vt 0.157882 0.199028
vt 0.210510 0.199028
vt 0.263137 0.199028
vt 0.315765 0.199028
vt 0.368392 0.199028
vt 0.421020 0.199028
vt 0.473647 0.199028
vt 0.526275 0.199028
vt 0.578902 0.199028
vt 0.631530 0.199028
vt 0.684157 0.199028
vt 0.736784 0.199028
vt 0.789412 0.199028
vt 0.842040 0.199028
vt 0.894667 0.199028
vt 0.000000 0.000000
vt 0.052627 0.000000
vt 0.105255 0.000000
vt 0.157882 0.000000
vt 0.210510 0.000000
vt 0.263137 0.000000
vt 0.315765 0.000000
vt 0.368392 0.000000
vt 0.421020 0.000000
vt 0.473647 0.000000
vt 0.526275 0.000000
vt 0.578902 0.000000
vt 0.631530 0.000000
vt 0.684157 0.000000
vt 0.736785 0.000000
vt 0.789412 0.000000
vt 0.842040 0.000000
vt 0.894667 0.000000
vt -0.000000 0.995140
vt 0.052627 0.995140
vt 0.105255 0.995140
vt 0.157882 0.995140
vt 0.210510 0.995140
vt 0.263137 0.995140
vt 0.315765 0.995140
vt 0.368392 0.995140
vt 0.421020 0.995140
vt 0.473647 0.995140
vt 0.526275 0.995140
vt 0.578902 0.995140
vt 0.631530 0.995140
vt 0.684157 0.995140
vt 0.736784 0.995140
vt 0.789412 0.995140
vt 0.842039 0.995140
vt 0.894667 0.995140
s 1
usemtl Screen_Mat
f 120/1/3 48/2/3 4/3/2 9/4/2
f 13/5/3 66/6/3 12/7/2 3/8/2
f 66/6/3 84/9/3 11/10/2 12/7/2
f 84/9/3 102/11/3 10/12/2 11/10/2
f 102/11/3 120/1/3 9/4/2 10/12/2
f 7/13/1 8/14/1 103/15/20 85/16/20
f 85/16/20 103/15/20 104/17/19 86/18/19
f 86/18/19 104/17/19 105/19/18 87/20/18
f 87/20/18 105/19/18 106/21/17 88/22/17
f 88/22/17 106/21/17 107/23/16 89/24/16
f 89/24/16 107/23/16 108/25/15 90/26/15
f 90/26/15 108/25/15 109/27/14 91/28/14
f 91/28/14 109/27/14 110/29/13 92/30/13
f 92/30/13 110/29/13 111/31/12 93/32/12
f 93/32/12 111/31/12 112/33/11 94/34/11
f 94/34/11 112/33/11 113/35/10 95/36/10
f 95/36/10 113/35/10 114/37/9 96/38/9
f 96/38/9 114/37/9 115/39/8 97/40/8
f 97/40/8 115/39/8 116/41/7 98/42/7
f 98/42/7 116/41/7 117/43/6 99/44/6
f 99/44/6 117/43/6 118/45/5 100/46/5
f 100/46/5 118/45/5 119/47/4 101/48/4
f 101/48/4 119/47/4 120/1/3 102/11/3
f 6/49/1 7/13/1 85/16/20 67/50/20
f 67/50/20 85/16/20 86/18/19 68/51/19
f 68/51/19 86/18/19 87/20/18 69/52/18
f 69/52/18 87/20/18 88/22/17 70/53/17
f 70/53/17 88/22/17 89/24/16 71/54/16
f 71/54/16 89/24/16 90/26/15 72/55/15
f 72/55/15 90/26/15 91/28/14 73/56/14
f 73/56/14 91/28/14 92/30/13 74/57/13
f 74/57/13 92/30/13 93/32/12 75/58/12
f 75/58/12 93/32/12 94/34/11 76/59/11
f 76/59/11 94/34/11 95/36/10 77/60/10
f 77/60/10 95/36/10 96/38/9 78/61/9
f 78/61/9 96/38/9 97/40/8 79/62/8
f 79/62/8 97/40/8 98/42/7 80/63/7
f 80/63/7 98/42/7 99/44/6 81/64/6
f 81/64/6 99/44/6 100/46/5 82/65/5
f 82/65/5 100/46/5 101/48/4 83/66/4
f 83/66/4 101/48/4 102/11/3 84/9/3
f 5/67/1 6/49/1 67/50/20 49/68/20
f 49/68/20 67/50/20 68/51/19 50/69/19
f 50/69/19 68/51/19 69/52/18 51/70/18
f 51/70/18 69/52/18 70/53/17 52/71/17
f 52/71/17 70/53/17 71/54/16 53/72/16
f 53/72/16 71/54/16 72/55/15 54/73/15
f 54/73/15 72/55/15 73/56/14 55/74/14
f 55/74/14 73/56/14 74/57/13 56/75/13
f 56/75/13 74/57/13 75/58/12 57/76/12
f 57/76/12 75/58/12 76/59/11 58/77/11
f 58/77/11 76/59/11 77/60/10 59/78/10
f 59/78/10 77/60/10 78/61/9 60/79/9
f 60/79/9 78/61/9 79/62/8 61/80/8
f 61/80/8 79/62/8 80/63/7 62/81/7
f 62/81/7 80/63/7 81/64/6 63/82/6
f 63/82/6 81/64/6 82/65/5 64/83/5
f 64/83/5 82/65/5 83/66/4 65/84/4
f 65/84/4 83/66/4 84/9/3 66/6/3
f 1/85/1 5/67/1 49/68/20 30/86/20
f 30/86/20 49/68/20 50/69/19 29/87/19
f 29/87/19 50/69/19 51/70/18 28/88/18
f 28/88/18 51/70/18 52/71/17 27/89/17
f 27/89/17 52/71/17 53/72/16 26/90/16
f 26/90/16 53/72/16 54/73/15 25/91/15
f 25/91/15 54/73/15 55/74/14 24/92/14
f 24/92/14 55/74/14 56/75/13 23/93/13
f 23/93/13 56/75/13 57/76/12 22/94/12
f 22/94/12 57/76/12 58/77/11 21/95/11
f 21/95/11 58/77/11 59/78/10 20/96/10
f 20/96/10 59/78/10 60/79/9 19/97/9
f 19/97/9 60/79/9 61/80/8 18/98/8
f 18/98/8 61/80/8 62/81/7 17/99/7
f 17/99/7 62/81/7 63/82/6 16/100/6
f 16/100/6 63/82/6 64/83/5 15/101/5
f 15/101/5 64/83/5 65/84/4 14/102/4
f 14/102/4 65/84/4 66/6/3 13/5/3
f 8/14/1 2/103/1 31/104/20 103/15/20
f 103/15/20 31/104/20 32/105/19 104/17/19
f 104/17/19 32/105/19 33/106/18 105/19/18
f 105/19/18 33/106/18 34/107/17 106/21/17
f 106/21/17 34/107/17 35/108/16 107/23/16
f 107/23/16 35/108/16 36/109/15 108/25/15
f 108/25/15 36/109/15 37/110/14 109/27/14
f 109/27/14 37/110/14 38/111/13 110/29/13
f 110/29/13 38/111/13 39/112/12 111/31/12
f 111/31/12 39/112/12 40/113/11 112/33/11
f 112/33/11 40/113/11 41/114/10 113/35/10
f 113/35/10 41/114/10 42/115/9 114/37/9
f 114/37/9 42/115/9 43/116/8 115/39/8
f 115/39/8 43/116/8 44/117/7 116/41/7
f 116/41/7 44/117/7 45/118/6 117/43/6
f 117/43/6 45/118/6 46/119/5 118/45/5
f 118/45/5 46/119/5 47/120/4 119/47/4
f 119/47/4 47/120/4 48/2/3 120/1/3
